<svg width="326" height="129" viewBox="0 0 326 129" fill="none" xmlns="http://www.w3.org/2000/svg">
<path d="M90.002 0C114.308 0 135.544 12.8407 146.998 31.959C138.615 23.9427 127.149 19 114.502 19C88.8207 19 68.002 39.371 68.002 64.5C68.002 89.629 88.8207 110 114.502 110C127.149 110 138.615 105.057 146.998 97.04C135.545 116.159 114.308 129 90.002 129C53.5512 129 24.002 100.122 24.002 64.5C24.002 28.8776 53.5512 0 90.002 0ZM114.998 34C132.671 34 146.998 47.6553 146.998 64.5C146.998 81.3447 132.671 95 114.998 95C97.3249 95 82.998 81.3447 82.998 64.5C82.998 47.6553 97.3249 34 114.998 34Z" fill="white"/>
<path d="M163.72 73V55.5455H175.072V58.196H166.882V62.9347H174.484V65.5852H166.882V70.3494H175.14V73H163.72ZM183.872 73.2557C182.565 73.2557 181.443 72.9688 180.505 72.3949C179.573 71.821 178.855 71.0284 178.349 70.017C177.849 69 177.599 67.8295 177.599 66.5057C177.599 65.1761 177.855 64.0028 178.366 62.9858C178.877 61.9631 179.599 61.1676 180.531 60.5994C181.468 60.0256 182.576 59.7386 183.855 59.7386C184.917 59.7386 185.857 59.9347 186.676 60.3267C187.499 60.7131 188.156 61.2614 188.644 61.9716C189.133 62.6761 189.411 63.5 189.48 64.4432H186.531C186.411 63.8125 186.127 63.2869 185.678 62.8665C185.235 62.4403 184.642 62.2273 183.897 62.2273C183.267 62.2273 182.713 62.3977 182.235 62.7386C181.758 63.0739 181.386 63.5568 181.119 64.1875C180.857 64.8182 180.727 65.5739 180.727 66.4545C180.727 67.3466 180.857 68.1136 181.119 68.7557C181.38 69.392 181.747 69.8835 182.218 70.2301C182.695 70.571 183.255 70.7415 183.897 70.7415C184.352 70.7415 184.758 70.6562 185.116 70.4858C185.48 70.3097 185.784 70.0568 186.028 69.7273C186.272 69.3977 186.44 68.9972 186.531 68.5256H189.48C189.406 69.4517 189.133 70.2727 188.661 70.9886C188.19 71.6989 187.548 72.2557 186.735 72.6591C185.923 73.0568 184.968 73.2557 183.872 73.2557ZM197.723 73.2557C196.445 73.2557 195.337 72.9744 194.399 72.4119C193.462 71.8494 192.735 71.0625 192.218 70.0511C191.706 69.0398 191.45 67.858 191.45 66.5057C191.45 65.1534 191.706 63.9687 192.218 62.9517C192.735 61.9347 193.462 61.1449 194.399 60.5824C195.337 60.0199 196.445 59.7386 197.723 59.7386C199.002 59.7386 200.11 60.0199 201.047 60.5824C201.985 61.1449 202.709 61.9347 203.22 62.9517C203.737 63.9687 203.996 65.1534 203.996 66.5057C203.996 67.858 203.737 69.0398 203.22 70.0511C202.709 71.0625 201.985 71.8494 201.047 72.4119C200.11 72.9744 199.002 73.2557 197.723 73.2557ZM197.74 70.7841C198.433 70.7841 199.013 70.5937 199.479 70.2131C199.945 69.8267 200.291 69.3097 200.519 68.6619C200.752 68.0142 200.868 67.2926 200.868 66.4972C200.868 65.696 200.752 64.9716 200.519 64.3239C200.291 63.6705 199.945 63.1506 199.479 62.7642C199.013 62.3778 198.433 62.1847 197.74 62.1847C197.03 62.1847 196.439 62.3778 195.968 62.7642C195.502 63.1506 195.152 63.6705 194.919 64.3239C194.692 64.9716 194.578 65.696 194.578 66.4972C194.578 67.2926 194.692 68.0142 194.919 68.6619C195.152 69.3097 195.502 69.8267 195.968 70.2131C196.439 70.5937 197.03 70.7841 197.74 70.7841ZM227.644 61.4347H224.457C224.366 60.9119 224.198 60.4489 223.954 60.0455C223.71 59.6364 223.406 59.2898 223.042 59.0057C222.678 58.7216 222.264 58.5085 221.798 58.3665C221.338 58.2188 220.84 58.1449 220.306 58.1449C219.357 58.1449 218.517 58.3835 217.784 58.8608C217.051 59.3324 216.477 60.0256 216.062 60.9403C215.647 61.8494 215.44 62.9602 215.44 64.2727C215.44 65.608 215.647 66.733 216.062 67.6477C216.482 68.5568 217.056 69.2443 217.784 69.7102C218.517 70.1705 219.355 70.4006 220.298 70.4006C220.82 70.4006 221.309 70.3324 221.764 70.196C222.224 70.054 222.636 69.8466 222.999 69.5739C223.369 69.3011 223.678 68.9659 223.928 68.5682C224.184 68.1705 224.36 67.7159 224.457 67.2045L227.644 67.2216C227.525 68.0511 227.267 68.8295 226.869 69.5568C226.477 70.2841 225.963 70.9261 225.326 71.483C224.69 72.0341 223.945 72.4659 223.093 72.7784C222.241 73.0852 221.295 73.2386 220.255 73.2386C218.721 73.2386 217.352 72.8835 216.147 72.1733C214.943 71.4631 213.994 70.4375 213.301 69.0966C212.607 67.7557 212.261 66.1477 212.261 64.2727C212.261 62.392 212.61 60.7841 213.309 59.4489C214.008 58.108 214.96 57.0824 216.164 56.3722C217.369 55.6619 218.732 55.3068 220.255 55.3068C221.227 55.3068 222.13 55.4432 222.965 55.7159C223.801 55.9886 224.545 56.3892 225.198 56.9176C225.852 57.4403 226.389 58.0824 226.809 58.8438C227.235 59.5994 227.514 60.4631 227.644 61.4347ZM233.489 55.5455V73H230.404V55.5455H233.489ZM242.372 73.2557C241.093 73.2557 239.985 72.9744 239.048 72.4119C238.11 71.8494 237.383 71.0625 236.866 70.0511C236.355 69.0398 236.099 67.858 236.099 66.5057C236.099 65.1534 236.355 63.9687 236.866 62.9517C237.383 61.9347 238.11 61.1449 239.048 60.5824C239.985 60.0199 241.093 59.7386 242.372 59.7386C243.65 59.7386 244.758 60.0199 245.695 60.5824C246.633 61.1449 247.357 61.9347 247.869 62.9517C248.386 63.9687 248.644 65.1534 248.644 66.5057C248.644 67.858 248.386 69.0398 247.869 70.0511C247.357 71.0625 246.633 71.8494 245.695 72.4119C244.758 72.9744 243.65 73.2557 242.372 73.2557ZM242.389 70.7841C243.082 70.7841 243.661 70.5937 244.127 70.2131C244.593 69.8267 244.94 69.3097 245.167 68.6619C245.4 68.0142 245.517 67.2926 245.517 66.4972C245.517 65.696 245.4 64.9716 245.167 64.3239C244.94 63.6705 244.593 63.1506 244.127 62.7642C243.661 62.3778 243.082 62.1847 242.389 62.1847C241.678 62.1847 241.088 62.3778 240.616 62.7642C240.15 63.1506 239.801 63.6705 239.568 64.3239C239.34 64.9716 239.227 65.696 239.227 66.4972C239.227 67.2926 239.34 68.0142 239.568 68.6619C239.801 69.3097 240.15 69.8267 240.616 70.2131C241.088 70.5937 241.678 70.7841 242.389 70.7841ZM257.8 59.9091V62.2955H250.274V59.9091H257.8ZM252.132 56.7727H255.218V69.0625C255.218 69.4773 255.28 69.7955 255.405 70.017C255.536 70.233 255.706 70.3807 255.916 70.4602C256.127 70.5398 256.36 70.5795 256.615 70.5795C256.808 70.5795 256.985 70.5653 257.144 70.5369C257.308 70.5085 257.433 70.483 257.519 70.4602L258.039 72.8722C257.874 72.929 257.638 72.9915 257.331 73.0597C257.03 73.1278 256.661 73.1676 256.223 73.179C255.45 73.2017 254.754 73.0852 254.135 72.8295C253.516 72.5682 253.024 72.1648 252.661 71.6193C252.303 71.0739 252.127 70.392 252.132 69.5739V56.7727ZM263.747 65.3295V73H260.661V55.5455H263.678V62.1335H263.832C264.139 61.3949 264.613 60.8125 265.255 60.3864C265.903 59.9545 266.727 59.7386 267.727 59.7386C268.636 59.7386 269.428 59.929 270.105 60.3097C270.781 60.6903 271.303 61.2472 271.673 61.9801C272.048 62.7131 272.235 63.608 272.235 64.6648V73H269.15V65.142C269.15 64.2614 268.923 63.5767 268.468 63.0881C268.019 62.5937 267.389 62.3466 266.576 62.3466C266.031 62.3466 265.542 62.4659 265.11 62.7045C264.684 62.9375 264.349 63.2756 264.105 63.7188C263.866 64.1619 263.747 64.6989 263.747 65.3295ZM281.176 73.2557C279.863 73.2557 278.73 72.983 277.775 72.4375C276.826 71.8864 276.096 71.108 275.585 70.1023C275.073 69.0909 274.818 67.9006 274.818 66.5312C274.818 65.1847 275.073 64.0028 275.585 62.9858C276.102 61.9631 276.823 61.1676 277.749 60.5994C278.676 60.0256 279.764 59.7386 281.014 59.7386C281.82 59.7386 282.582 59.8693 283.298 60.1307C284.019 60.3864 284.656 60.7841 285.207 61.3239C285.764 61.8636 286.201 62.5511 286.519 63.3864C286.838 64.2159 286.997 65.2045 286.997 66.3523V67.2983H276.267V65.2188H284.039C284.034 64.6278 283.906 64.1023 283.656 63.642C283.406 63.1761 283.056 62.8097 282.607 62.5426C282.164 62.2756 281.647 62.142 281.056 62.142C280.426 62.142 279.872 62.2955 279.394 62.6023C278.917 62.9034 278.545 63.3011 278.278 63.7955C278.017 64.2841 277.883 64.821 277.877 65.4062V67.2216C277.877 67.983 278.017 68.6364 278.295 69.1818C278.573 69.7216 278.963 70.1364 279.463 70.4261C279.963 70.7102 280.548 70.8523 281.218 70.8523C281.667 70.8523 282.073 70.7898 282.437 70.6648C282.801 70.5341 283.116 70.3438 283.383 70.0938C283.65 69.8438 283.852 69.5341 283.988 69.1648L286.869 69.4886C286.687 70.25 286.34 70.9148 285.829 71.483C285.323 72.0455 284.676 72.483 283.886 72.7955C283.096 73.1023 282.193 73.2557 281.176 73.2557ZM299.953 63.3693L297.141 63.6761C297.061 63.392 296.922 63.125 296.723 62.875C296.53 62.625 296.269 62.4233 295.939 62.2699C295.61 62.1165 295.206 62.0398 294.729 62.0398C294.087 62.0398 293.547 62.179 293.11 62.4574C292.678 62.7358 292.465 63.0966 292.47 63.5398C292.465 63.9205 292.604 64.2301 292.888 64.4688C293.178 64.7074 293.655 64.9034 294.32 65.0568L296.553 65.5341C297.791 65.8011 298.712 66.2244 299.314 66.804C299.922 67.3835 300.229 68.142 300.235 69.0795C300.229 69.9034 299.987 70.6307 299.51 71.2614C299.039 71.8864 298.382 72.375 297.541 72.7273C296.7 73.0795 295.735 73.2557 294.644 73.2557C293.041 73.2557 291.752 72.9205 290.774 72.25C289.797 71.5739 289.215 70.6335 289.027 69.429L292.036 69.1392C292.172 69.7301 292.462 70.1761 292.905 70.4773C293.348 70.7784 293.925 70.929 294.635 70.929C295.368 70.929 295.956 70.7784 296.399 70.4773C296.848 70.1761 297.073 69.804 297.073 69.3608C297.073 68.9858 296.928 68.6761 296.638 68.4318C296.354 68.1875 295.911 68 295.308 67.8693L293.075 67.4006C291.82 67.1392 290.891 66.6989 290.289 66.0795C289.686 65.4545 289.388 64.6648 289.394 63.7102C289.388 62.9034 289.607 62.2045 290.05 61.6136C290.499 61.017 291.121 60.5568 291.916 60.233C292.718 59.9034 293.641 59.7386 294.686 59.7386C296.22 59.7386 297.428 60.0653 298.308 60.7188C299.195 61.3722 299.743 62.2557 299.953 63.3693Z" fill="white"/>
</svg>
