<svg width="207" height="217" viewBox="0 0 207 217" fill="none" xmlns="http://www.w3.org/2000/svg">
<path d="M111.079 0C151.979 0.000107406 187.714 21.5927 206.993 53.7432C192.886 40.2664 173.591 31.9609 152.312 31.9609C109.091 31.961 74.0527 66.2288 74.0527 108.5C74.0527 150.771 109.091 185.039 152.312 185.039C173.591 185.039 192.886 176.733 206.993 163.256C187.714 195.407 151.979 217 111.079 217C49.732 217 0 168.423 0 108.5C0 48.5771 49.732 0 111.079 0ZM153.147 57.1934C182.892 57.1934 207.004 80.1644 207.004 108.5C207.004 136.836 182.892 159.807 153.147 159.807C123.403 159.807 99.291 136.836 99.291 108.5C99.291 80.1644 123.403 57.1934 153.147 57.1934Z" fill="black"/>
</svg>
