<svg width="123" height="129" viewBox="0 0 123 129" fill="none" xmlns="http://www.w3.org/2000/svg">
<path d="M66 0C90.306 0 111.543 12.8407 122.996 31.959C114.613 23.9427 103.147 19 90.5 19C64.8188 19 44 39.371 44 64.5C44 89.629 64.8188 110 90.5 110C103.148 110 114.613 105.057 122.996 97.04C111.543 116.159 90.3063 129 66 129C29.5492 129 0 100.122 0 64.5C0 28.8776 29.5492 0 66 0ZM90.9961 34C108.669 34 122.996 47.6553 122.996 64.5C122.996 81.3447 108.669 95 90.9961 95C73.323 95 58.9961 81.3447 58.9961 64.5C58.9961 47.6553 73.323 34 90.9961 34Z" fill="white"/>
</svg>
